<?xml version="1.0" standalone="no"?><!DOCTYPE svg PUBLIC "-//W3C//DTD SVG 1.1//EN" "http://www.w3.org/Graphics/SVG/1.1/DTD/svg11.dtd"><svg t="1717050507455" class="icon" viewBox="0 0 1075 1024" version="1.1" xmlns="http://www.w3.org/2000/svg" p-id="2668" xmlns:xlink="http://www.w3.org/1999/xlink" width="209.9609375" height="200"><path d="M36.300782 359.117132l413.951793 232.959884a131.225534 131.225534 0 0 0 127.999936 0l413.951793-232.959884a69.734365 69.734365 0 0 0-1.382399-122.367938L575.999712 15.514104a131.123134 131.123134 0 0 0-123.647938 0l-414.719793 221.18389a69.785565 69.785565 0 0 0-1.382399 122.419138z m456.140572-268.595065a46.233577 46.233577 0 0 1 43.571178 0l390.195005 208.127896-389.683005 219.28949a45.721577 45.721577 0 0 1-44.543978 0L102.195149 298.649963l390.143805-208.127896z" p-id="2669" fill="#000"></path><path d="M21.196789 570.163427l356.761422 207.103896 0.512 0.3072a276.991862 276.991862 0 0 0 271.513464 0l357.324621-207.462296A42.547179 42.547179 0 1 0 964.607518 496.640264l-356.556622 206.950296a191.948704 191.948704 0 0 1-187.647906 0L63.846368 496.589064a42.495979 42.495979 0 0 0-42.649579 73.574363z" p-id="2670" fill="#000"></path><path d="M608.050896 914.432055l356.556622-206.950297a42.495979 42.495979 0 1 1 42.700778 73.523163l-357.324621 207.411097a276.940662 276.940662 0 0 1-271.564664 0l-0.512-0.256-356.710222-207.103897a42.495979 42.495979 0 0 1 42.649579-73.574363L420.35179 914.432055a191.897504 191.897504 0 0 0 187.699106 0z" p-id="2671" fill="#000"></path></svg>
