<?xml version="1.0" standalone="no"?><!DOCTYPE svg PUBLIC "-//W3C//DTD SVG 1.1//EN" "http://www.w3.org/Graphics/SVG/1.1/DTD/svg11.dtd"><svg t="1721546100681" class="icon" viewBox="0 0 1024 1024" version="1.1" xmlns="http://www.w3.org/2000/svg" p-id="4227" xmlns:xlink="http://www.w3.org/1999/xlink" width="200" height="200"><path d="M992 960l-64 0L928 384c0-89.6-51.2-128-83.2-134.4L640 185.6 640 115.2c0-12.8-6.4-19.2-12.8-25.6C620.8 83.2 608 83.2 601.6 83.2L172.8 204.8c0 0-76.8 19.2-76.8 121.6L96 960l-64 0C12.8 960 0 972.8 0 992S12.8 1024 32 1024l960 0c19.2 0 32-12.8 32-32S1011.2 960 992 960zM576 960 160 960 160 326.4c0-44.8 25.6-57.6 32-57.6l384-108.8L576 960zM864 960 640 960 640 249.6l185.6 64c0 0 6.4 0 6.4 0 6.4 0 32 6.4 32 70.4L864 960zM339.2 313.6l-64 0 0 64 64 0L339.2 313.6zM486.4 313.6l-64 0 0 64 64 0L486.4 313.6zM339.2 416l-64 0 0 64 64 0L339.2 416zM486.4 416l-64 0 0 64 64 0L486.4 416zM339.2 524.8l-64 0 0 64 64 0L339.2 524.8zM486.4 524.8l-64 0 0 64 64 0L486.4 524.8zM339.2 633.6l-64 0 0 64 64 0L339.2 633.6zM486.4 633.6l-64 0 0 64 64 0L486.4 633.6zM339.2 736l-64 0 0 64 64 0L339.2 736zM486.4 736l-64 0 0 64 64 0L486.4 736zM339.2 844.8l-64 0 0 64 64 0L339.2 844.8zM486.4 844.8l-64 0 0 64 64 0L486.4 844.8zM723.2 480l64 0 0-64-64 0L723.2 480zM723.2 588.8l64 0 0-64-64 0L723.2 588.8zM723.2 697.6l64 0 0-64-64 0L723.2 697.6zM723.2 800l64 0 0-64-64 0L723.2 800zM723.2 908.8l64 0 0-64-64 0L723.2 908.8z" p-id="4228" fill="#fff"></path></svg>
