<?xml version="1.0" standalone="no"?><!DOCTYPE svg PUBLIC "-//W3C//DTD SVG 1.1//EN" "http://www.w3.org/Graphics/SVG/1.1/DTD/svg11.dtd"><svg t="1724029413196" class="icon" viewBox="0 0 1024 1024" version="1.1" xmlns="http://www.w3.org/2000/svg" p-id="7588" xmlns:xlink="http://www.w3.org/1999/xlink" width="200" height="200"><path d="M512 1024a512 512 0 1 1 512-512 512 512 0 0 1-512 512z m238.262857-576.804571v58.294857h68.132572v-116.626286H378.331429v116.626286h65.462857v-58.294857h306.468571z m-379.794286 363.154285q10.422857 13.202286 15.689143 18.541715 180.736-82.176 196.461715-225.316572h136.228571c0 12.397714-0.914286 30.061714-2.633143 53.028572a316.013714 316.013714 0 0 1-2.596571 50.358857 48.786286 48.786286 0 0 1-57.636572 42.422857h-96.914285q10.422857 31.780571 15.689142 52.992a45.275429 45.275429 0 0 1 2.633143 10.605714q65.426286 0 102.144-2.633143 96.877714 0 102.180572-87.478857 2.596571-50.358857 7.862857-177.627428h-199.094857v-31.780572c1.718857-17.664 2.633143-30.902857 2.633143-39.789714h-68.096q-2.633143 39.789714-2.633143 71.570286h-138.971429v58.514285h130.962286q-15.689143 111.36-175.542857 166.985143z m-94.317714 10.605715q34.011429-137.801143 60.269714-235.922286c-5.266286-1.755429-14.006857-4.388571-26.221714-7.972572a241.371429 241.371429 0 0 1-39.277714-13.238857 2328.429714 2328.429714 0 0 1-65.499429 238.555429z m18.285714-307.492572l47.140572-53.028571q-57.673143-50.285714-102.144-84.809143l-44.544 50.358857a1116.672 1116.672 0 0 1 99.620571 87.478857z m41.910858-251.830857q-54.857143-42.349714-78.592-63.634286L213.211429 245.723429a296.886857 296.886857 0 0 0 31.451428 26.514285q41.837714 39.753143 65.462857 63.597715l49.773715-55.661715q-7.753143-5.266286-23.442286-18.541714z m492.434285-7.936h-107.410285v-58.514286h-65.462858v58.514286h-110.043428v-58.514286h-68.096v58.514286H373.028571v58.294857h104.777143v50.358857h68.096V311.990857h110.043429v50.358857h65.462857V311.990857h107.410286V253.696z" fill="#14151A" p-id="7589"></path></svg>