<?xml version="1.0" standalone="no"?><!DOCTYPE svg PUBLIC "-//W3C//DTD SVG 1.1//EN" "http://www.w3.org/Graphics/SVG/1.1/DTD/svg11.dtd"><svg t="1717035251176" class="icon" viewBox="0 0 1024 1024" version="1.1" xmlns="http://www.w3.org/2000/svg" p-id="861" xmlns:xlink="http://www.w3.org/1999/xlink" width="200" height="200"><path d="M0 0m85.333333 0l853.333334 0q85.333333 0 85.333333 85.333333l0 853.333334q0 85.333333-85.333333 85.333333l-853.333334 0q-85.333333 0-85.333333-85.333333l0-853.333334q0-85.333333 85.333333-85.333333Z" fill="#222" fill-opacity=".181" p-id="862"></path><path d="M829.525333 673.792s-65.322667 49.749333-130.176 49.749333c-61.738667 0-99.541333-49.749333-153.898666-49.749333-70.698667 0-127.018667 49.749333-177.578667 49.749333-61.653333 0-142.037333-62.208-142.037333-62.208-8.704-8.32-14.506667-20.394667-11.818667-24.874666 5.248-8.704 9.813333-20.736 23.637333-12.458667 0 0 77.44 62.208 130.218667 62.208 50.688 0 99.584-49.749333 177.578667-49.749333 53.546667 0 95.701333 49.749333 153.898666 49.749333 71.168 0 130.176-49.749333 130.176-49.749333 10.88-8.32 21.632 2.346667 23.68 12.416 1.28 6.016-7.637333 17.408-23.68 24.917333z m-70.997333-49.792c-5.802667 9.216-33.536 24.874667-47.36 24.874667-76.928 0-103.552-62.208-177.578667-62.208-73.984 0-116.394667 62.208-153.856 62.208-37.504 0-59.221333-24.874667-59.221333-24.874667v-136.874667H261.333333L533.589333 213.333333l118.442667 114.090667V263.125333h47.317333v109.909334l118.357334 114.090666h-59.178667v136.874667zM237.653333 711.125333s77.44 62.208 130.218667 62.208c50.688 0 99.584-49.792 177.578667-49.792 53.546667 0 95.701333 49.792 153.898666 49.792 71.168 0 130.218667-49.792 130.218667-49.792 10.837333-8.32 21.589333 2.389333 23.637333 12.458667 1.28 6.058667-7.637333 17.408-23.637333 24.874667 0 0-65.365333 49.792-130.218667 49.792-61.738667 0-99.541333-49.792-153.898666-49.792-70.698667 0-127.018667 49.792-177.578667 49.792-61.653333 0-142.037333-62.208-142.037333-62.208-8.704-8.32-14.506667-20.437333-11.818667-24.917334 5.248-8.704 9.813333-20.736 23.637333-12.416z" fill="#fff" p-id="864"></path></svg>
