<?xml version="1.0" standalone="no"?><!DOCTYPE svg PUBLIC "-//W3C//DTD SVG 1.1//EN" "http://www.w3.org/Graphics/SVG/1.1/DTD/svg11.dtd"><svg t="1724029270263" class="icon" viewBox="0 0 1024 1024" version="1.1" xmlns="http://www.w3.org/2000/svg" p-id="5536" xmlns:xlink="http://www.w3.org/1999/xlink" width="200" height="200"><path d="M917 194.1H723.1v-141c0-29.2-23.7-52.9-52.9-52.9H353.1c-29.2 0-52.9 23.7-52.9 52.9v141H106.4C48 194.1 0.6 241.4 0.6 299.9v17.6h1022.2v-17.6c0-58.5-47.5-105.8-105.8-105.8z m-299.5 0H405.9V106h211.4v88.1h0.2zM0.6 916.6c0 58.4 47.3 105.8 105.8 105.8h810.7c58.4 0 105.8-47.3 105.8-105.8V423.1H0.6v493.5z m370.1-246.7h88.1v-88.1c0-29.2 23.7-52.9 52.9-52.9s52.9 23.7 52.9 52.9v88.1h88.1c29.2 0 52.9 23.7 52.9 52.9s-23.7 52.9-52.9 52.9h-88.1v88.1c0 29.2-23.7 52.9-52.9 52.9s-52.9-23.7-52.9-52.9v-88.1h-88.1c-29.2 0-52.9-23.7-52.9-52.9s23.7-52.9 52.9-52.9z m0 0" fill="" p-id="5537"></path></svg>