<?xml version="1.0" standalone="no"?><!DOCTYPE svg PUBLIC "-//W3C//DTD SVG 1.1//EN" "http://www.w3.org/Graphics/SVG/1.1/DTD/svg11.dtd"><svg t="1721546136006" class="icon" viewBox="0 0 1024 1024" version="1.1" xmlns="http://www.w3.org/2000/svg" p-id="6287" xmlns:xlink="http://www.w3.org/1999/xlink" width="200" height="200"><path d="M212.992 526.336 212.992 526.336 212.992 526.336 215.04 526.336 212.992 526.336Z" p-id="6288"></path><path d="M108.544 116.736 108.544 116.736l804.864 0c18.432 0 32.768 14.336 32.768 34.816l0 0 0 704.512c0 18.432-14.336 32.768-32.768 32.768l0 0L108.544 888.832c-18.432 0-32.768-14.336-32.768-32.768l0 0 0-186.368 0 0c0-10.24 8.192-20.48 20.48-20.48l159.744 0 0 0c10.24 0 20.48 8.192 20.48 20.48l0 47.104 122.88-122.88-122.88-122.88 0 47.104 0 0c0 10.24-8.192 20.48-20.48 20.48L96.256 538.624c-12.288 0-20.48-8.192-20.48-20.48l0 0L75.776 149.504C75.776 131.072 90.112 116.736 108.544 116.736L108.544 116.736zM141.312 686.08 141.312 686.08l0 133.12L880.64 819.2 880.64 362.496 141.312 362.496l0 133.12 92.16 0 0-75.776c0-10.24 8.192-20.48 20.48-20.48 6.144 0 10.24 2.048 14.336 6.144l0 0 172.032 172.032c8.192 8.192 8.192 20.48 0 28.672L270.336 778.24c-8.192 8.192-20.48 8.192-28.672 0-4.096-4.096-6.144-10.24-6.144-14.336l0-75.776L141.312 688.128 141.312 686.08zM806.912 438.272 806.912 438.272c10.24 0 20.48 8.192 20.48 20.48 0 12.288-8.192 20.48-20.48 20.48L522.24 479.232c-12.288 0-20.48-8.192-20.48-20.48 0-10.24 8.192-20.48 20.48-20.48L806.912 438.272 806.912 438.272zM724.992 704.512 724.992 704.512c10.24 0 20.48 8.192 20.48 20.48 0 10.24-10.24 20.48-20.48 20.48l-204.8 0c-12.288 0-20.48-8.192-20.48-20.48 0-10.24 8.192-20.48 20.48-20.48L724.992 704.512 724.992 704.512zM806.912 526.336 806.912 526.336c10.24 0 20.48 8.192 20.48 20.48 0 10.24-8.192 20.48-20.48 20.48L522.24 567.296c-12.288 0-20.48-8.192-20.48-20.48 0-12.288 8.192-20.48 20.48-20.48L806.912 526.336 806.912 526.336zM806.912 616.448 806.912 616.448c10.24 0 20.48 8.192 20.48 20.48s-8.192 20.48-20.48 20.48L522.24 657.408c-12.288 0-20.48-8.192-20.48-20.48s8.192-20.48 20.48-20.48L806.912 616.448 806.912 616.448zM827.392 219.136 827.392 219.136c18.432 0 32.768 14.336 32.768 32.768 0 18.432-14.336 34.816-32.768 34.816-18.432 0-32.768-16.384-32.768-34.816C794.624 233.472 808.96 219.136 827.392 219.136L827.392 219.136zM745.472 219.136 745.472 219.136c18.432 0 32.768 14.336 32.768 32.768 0 18.432-14.336 34.816-32.768 34.816-18.432 0-34.816-16.384-34.816-34.816C712.704 233.472 727.04 219.136 745.472 219.136L745.472 219.136zM663.552 219.136 663.552 219.136c18.432 0 32.768 14.336 32.768 32.768 0 18.432-14.336 34.816-32.768 34.816-18.432 0-32.768-16.384-32.768-34.816C630.784 233.472 645.12 219.136 663.552 219.136L663.552 219.136zM141.312 321.536 141.312 321.536 880.64 321.536 880.64 182.272 141.312 182.272 141.312 321.536 141.312 321.536z" p-id="6289" fill="#fff"></path></svg>
