<?xml version="1.0" standalone="no"?><!DOCTYPE svg PUBLIC "-//W3C//DTD SVG 1.1//EN" "http://www.w3.org/Graphics/SVG/1.1/DTD/svg11.dtd"><svg t="1724029158912" class="icon" viewBox="0 0 1024 1024" version="1.1" xmlns="http://www.w3.org/2000/svg" p-id="4329" xmlns:xlink="http://www.w3.org/1999/xlink" width="200" height="200"><path d="M808.6528 482.7136c-62.464-62.464-159.4368-106.2912-246.9376-125.0304 75.008 75.008 156.3136 237.568 175.0528 587.7248 0-3.1232 3.1232-3.1232 3.1232-6.2464 15.616-15.6672 40.6528-40.6528 68.7616-59.392 18.7904-12.544 62.5152-21.9136 93.7984-15.6672 31.232 6.2464 43.776 9.3696 43.776-18.7392 6.2464-131.328-34.4064-265.728-137.5744-362.6496zM414.7712 692.224c-53.1456 3.1232-109.4144 81.3056-112.5376 203.2128h68.7616c53.1456 0 100.0448 6.2464 143.8208 12.4928v-12.4928c0-106.2912-46.8992-206.336-100.0448-203.2128z m196.9664-622.08c-6.2464-3.1232-34.4064-9.3696-46.8992-6.2464-18.7392 6.2464-59.392 59.392-71.8848 112.5376-12.544 50.0224-12.544 168.8064-12.544 168.8064-121.856 0-228.1984 62.464-303.2064 168.8064-71.8848 106.2912-93.7984 253.184-100.0448 372.0192 0 28.16 53.1456 12.4928 81.2544 12.4928 34.4064-3.1232 68.8128-3.1232 106.2912-3.1232 0-140.6976 68.8128-240.7424 146.944-237.568 84.4288 3.072 137.5744 103.1168 137.5744 240.64v18.7904l112.5376 28.16c18.7392 6.2464 34.3552 12.4928 43.7248 15.616-9.3696-246.9888-65.6384-512.6656-187.5456-603.3408-9.3696-40.6528-6.2464-78.1312-3.1232-112.5376 103.168 37.5296 215.7056 28.16 234.496-21.8624 28.1088-71.936-106.3424-134.4512-137.5744-153.1904z m100.0448 140.6464c-6.2976 18.7904-40.6528 28.16-81.3056 25.0368-46.8992-3.1232-103.168-21.9136-106.2912-25.0368-3.072-9.3696 6.2464-34.3552 15.616-59.392 9.4208-21.8624 25.0368-43.776 37.5296-43.776 15.616-3.072 146.944 59.392 134.4512 103.168z" fill="#56ABFE" p-id="4330"></path></svg>