<?xml version="1.0" standalone="no"?><!DOCTYPE svg PUBLIC "-//W3C//DTD SVG 1.1//EN" "http://www.w3.org/Graphics/SVG/1.1/DTD/svg11.dtd"><svg t="1724029349459" class="icon" viewBox="0 0 1202 1024" version="1.1" xmlns="http://www.w3.org/2000/svg" p-id="6598" xmlns:xlink="http://www.w3.org/1999/xlink" width="234.765625" height="200"><path d="M20.292931 1024h1180.504732v-39.891643H20.292931v39.891643z m1100.282995-81.200942V376.606637L601.136891 81.069407 80.053668 376.606637v566.192421h80.039049V416.46905H1040.536876v526.330008h80.03905zM1000.513698 662.790266h-52.555541v24.626276h-14.899993V662.790266h-52.555542v119.448398h120.011076V662.790266z m-139.916706 139.098266v139.660943h139.646328v-139.66825h-61.039549v29.164233h-17.538v-29.164233h-61.039549z m-521.660515-36.442503H321.259634v-29.156926h-61.302619v139.660943h140.304003v-139.668251H338.943784v29.156926zM601.136891 0.094998l-601.136888 341.991008v52.818611L601.136891 52.920916l601.166117 341.991009v-52.818612z m-60.652252 941.461785l-0.219225-472.064512h-19.99332v19.964091H220.123831l0.628445-20.132163h-20.424463v472.232584h20.409848l-0.61383-19.883708h300.148263l-0.189995 19.883708h20.40254z m-320.360808-432.165561h300.148263v176.24229H220.123831V509.391222z m0 392.346993V705.561065h300.148263V901.745522H220.123831z m279.833412-362.751617H438.910387v29.164233h-17.538001v-29.164233h-61.105316v119.726083h140.304003z m200.44473 283.253322v119.448398h120.011075V822.23992h-52.555541v24.626276h-14.899993v-24.626276h-52.555541z" fill="#9B9B9B" p-id="6599"></path></svg>