<?xml version="1.0" standalone="no"?><!DOCTYPE svg PUBLIC "-//W3C//DTD SVG 1.1//EN" "http://www.w3.org/Graphics/SVG/1.1/DTD/svg11.dtd"><svg t="1724029553002" class="icon" viewBox="0 0 1024 1024" version="1.1" xmlns="http://www.w3.org/2000/svg" p-id="13156" xmlns:xlink="http://www.w3.org/1999/xlink" width="200" height="200"><path d="M886.016 616H728l186.016 324H112L300 616H88c-48 0-88-38.016-88-86.016 0-42.016 32-78.016 72-86.016a218.08 218.08 0 0 1-6.016-52c0-124 76-224 228-224h4c52-100 158.016-168 280-168 198.016 0 312 138.016 312 308 0 12 0 26.016-2.016 38.016 76 2.016 136 60 136 134.016s-62.016 136-138.016 136z m-36 288L514.016 320l-336 584h672z m-144-324h182.016c54.016-2.016 98.016-46.016 98.016-100s-44-98.016-98.016-98.016h-42.016l4-42.016c2.016-10.016 4-20 4-32 0-162.016-110.016-270.016-276-270.016-104 0-200 56-248 148L320 205.952h-28c-118.016 0-190.016 70.016-190.016 186.016 0 14.016 2.016 30.016 6.016 44l10.016 38.016-40 8c-24 4-40 24-40 48 0 26.016 20 50.016 48 50.016h236l192-334.016z m-218.016 160V464h46.016v276H488z m-9.984 82.016c0-24 10.016-34.016 34.016-34.016s34.016 10.016 34.016 34.016-10.016 34.016-34.016 34.016-34.016-10.016-34.016-34.016z" p-id="13157"></path></svg>