<?xml version="1.0" standalone="no"?><!DOCTYPE svg PUBLIC "-//W3C//DTD SVG 1.1//EN" "http://www.w3.org/Graphics/SVG/1.1/DTD/svg11.dtd"><svg t="1696229817779" class="icon" viewBox="0 0 1151 1024" version="1.1" xmlns="http://www.w3.org/2000/svg" p-id="2238" xmlns:xlink="http://www.w3.org/1999/xlink" width="224.8046875" height="200"><path d="M80.328774 261.835988A131.237774 131.237774 0 1 1 264.777965 85.573168 398.062332 398.062332 0 0 1 434.261445 47.967023h226.532259c60.630317 0 118.062832 13.430766 169.48348 37.542189a131.237774 131.237774 0 1 1 184.449192 176.326776c29.16395 55.513834 45.792518 118.830304 45.792517 185.856224v77.9624a477.68759 477.68759 0 0 1-477.623633 477.68759H512.15989A477.68759 477.68759 0 0 1 34.536256 525.590656V447.692212c0.127912-67.153832 16.628568-130.470302 45.792518-185.856224z" fill="#F7CF79" p-id="2239"></path><path d="M986.010118 774.12379a477.175942 477.175942 0 0 1-403.050902 221.223908H512.287802a477.175942 477.175942 0 0 1-403.050902-221.223908v-37.286366c0-73.549435 59.734932-106.614702 133.284367-106.614702H314.024108A133.348323 133.348323 0 0 1 443.662982 527.637249h211.886328c62.99669 0 115.952283 43.809881 129.638873 102.585473h67.537568c73.549435 0 133.284367 33.065268 133.284367 106.614702v37.286366z" fill="#FFFFFF" p-id="2240"></path><path d="M582.959216 1007.307476H512.287802a491.310224 491.310224 0 0 1-239.195553-62.229217 492.589345 492.589345 0 0 1-173.960402-164.558866l-1.918681-2.941977v-40.739992c0-73.165699 55.769658-118.57448 145.308101-118.57448h62.357129a145.563925 145.563925 0 0 1 138.784586-102.585472h211.886328a145.563925 145.563925 0 0 1 138.784585 102.585472h58.391856c89.538442 0 145.244145 45.408781 145.244145 118.57448v40.739992l-1.854725 2.941977a495.019674 495.019674 0 0 1-173.960402 164.558866 491.310224 491.310224 0 0 1-239.195553 62.229217z m-461.762539-236.765224a465.408032 465.408032 0 0 0 391.091125 212.653801h70.671414c79.625258 0 158.291175-20.46593 227.427643-59.159328a470.26869 470.26869 0 0 0 163.599525-153.494473v-33.704828c0-30.954719-11.448129-54.746362-34.088564-71.183061-21.169446-15.349447-51.292736-23.407907-87.172069-23.407907H775.786647l-2.110549-9.209669a121.96415 121.96415 0 0 0-42.21098-66.770095 119.853601 119.853601 0 0 0-75.851852-26.605709H443.662982c-27.820873 0-54.042846 9.145712-75.787896 26.605709-21.10549 16.948348-36.135157 40.676035-42.21098 66.770095l-2.174505 9.209669H242.521267c-35.815377 0-66.002623 8.122416-87.17207 23.407907-22.640435 16.4367-34.088564 40.292299-34.088564 71.183061v33.704828z" fill="#525252" p-id="2241"></path><path d="M582.959216 1023.296484H512.287802a494.508026 494.508026 0 0 1-193.722815-39.205047 495.08363 495.08363 0 0 1-158.163263-106.550746 495.08363 495.08363 0 0 1-106.550747-158.163263 494.508026 494.508026 0 0 1-39.205046-193.786772V447.692212c0-62.229217 13.878459-123.882831 40.356255-179.716445A151.383924 151.383924 0 0 1 151.192055 0c47.711199 0 92.608332 22.768347 121.00481 60.502405A415.586284 415.586284 0 0 1 434.389357 27.948785h226.468303c56.409219 0 110.899756 10.936481 162.192493 32.55362A151.895572 151.895572 0 0 1 943.991006 0a151.383924 151.383924 0 0 1 96.253826 267.975767c26.349884 55.769658 40.292299 117.679096 40.292299 179.716445v77.9624c0 67.153832-13.110986 132.325027-39.141091 193.722816a495.08363 495.08363 0 0 1-106.550746 158.163263 495.08363 495.08363 0 0 1-158.163263 106.550746c-61.397789 26.030104-126.63294 39.205047-193.786771 39.205047zM151.256011 39.972519c-61.333833 0-111.283493 49.94966-111.283492 111.283492 0 38.053838 19.186809 73.101743 51.292736 93.631629l15.477359 9.849228-8.570108 16.244832A379.89882 379.89882 0 0 0 54.746362 447.692212v77.9624c0 122.28393 47.583286 237.14896 134.051839 323.617513a454.535507 454.535507 0 0 0 323.617513 134.05184h70.671414a454.535507 454.535507 0 0 0 323.617513-134.05184 454.535507 454.535507 0 0 0 134.051839-323.617513V447.692212c0-61.525701-15.029667-122.60371-43.490101-176.710512l-8.506152-16.244832 15.47736-9.849228c32.105927-20.657798 51.292736-55.641746 51.292736-93.631629 0-61.333833-49.94966-111.283493-111.283493-111.283492-39.524827 0-76.427456 21.297358-96.317781 55.57779l-9.145713 15.861096-16.628567-7.73868a375.997502 375.997502 0 0 0-161.041285-35.687465H434.645181c-56.281307 0-110.452064 11.959778-160.977328 35.687465l-16.628568 7.674724-9.209668-15.79714a112.498657 112.498657 0 0 0-96.573606-55.57779z" fill="#525252" p-id="2242"></path><path d="M709.400287 823.305977l-84.997564-7.418899 8.250328-94.015365 84.933608 7.482856z" fill="#FFFFFF" p-id="2243"></path><path d="M432.342764 266.504778h230.561489a30.059334 30.059334 0 0 0 29.931422-30.059334v-6.587471a30.059334 30.059334 0 0 0-29.931422-29.995379H580.720754c0.127912-1.087253 0.127912-2.238461 0.127913-3.325713v-15.349447h81.99163a30.059334 30.059334 0 0 0 29.931422-29.931423V144.540628a30.059334 30.059334 0 0 0-29.931422-29.931422H580.912623V95.934045h81.99163a30.059334 30.059334 0 0 0 29.931422-29.995378V59.28724a30.059334 30.059334 0 0 0-29.931422-29.995378H432.342764a30.059334 30.059334 0 0 0-29.931422 30.059334v6.587471c0 16.564612 13.430766 29.995378 29.931422 29.995378h81.991631v18.675161H432.342764a30.059334 30.059334 0 0 0-29.931422 29.931422v6.715383c0 16.500656 13.430766 29.931422 29.931422 29.931423h81.991631v15.349447l0.127912 3.325713H432.342764a30.059334 30.059334 0 0 0-29.931422 29.995379v6.651427c0 16.500656 13.430766 29.995378 29.931422 29.995378zM99.259759 519.003185H60.630317a33.321092 33.321092 0 0 0 0 66.578228h38.629442a33.321092 33.321092 0 0 0 0-66.578228zM69.967897 385.654862h38.629442a33.321092 33.321092 0 0 0 0-66.578227h-38.629442a33.321092 33.321092 0 0 0 0 66.578227z m61.269877 33.321092H62.037349a33.321092 33.321092 0 0 0 0 66.642184h69.264381a33.321092 33.321092 0 0 0 0-66.642184z m856.754981-33.257136h38.629442a33.321092 33.321092 0 0 0 0-66.642183h-38.629442a33.321092 33.321092 0 0 0 0 66.578227z m47.967023 134.499532h-38.629443a33.321092 33.321092 0 0 0 0 66.642183h38.629443a33.321092 33.321092 0 0 0 0-66.642183z m-0.639561-33.896696a33.321092 33.321092 0 0 0 0-66.70614h-69.328336a33.321092 33.321092 0 0 0 0 66.642184h69.328336zM314.471801 410.405846a33.257136 33.257136 0 1 0 66.578227 0 33.257136 33.257136 0 0 0-66.578227 0zM714.19699 410.405846a33.257136 33.257136 0 1 0 66.578227 0 33.257136 33.257136 0 0 0-66.578227 0zM711.894572 732.168634a12.08769 12.08769 0 0 0-18.739116-15.093623c-31.722191 39.652739-81.288114 63.828118-133.923928 66.130535 0.127912-0.831428 0.255824-1.598901 0.255824-2.558241v-87.939542a42.21098 42.21098 0 0 0 11.959778-5.436262l30.251202-19.570545a19.058897 19.058897 0 0 0-10.360877-35.047905H503.270002a19.058897 19.058897 0 0 0-15.989008 8.634064 18.867029 18.867029 0 0 0 5.756043 26.221973l30.187246 19.634501c3.837362 2.366373 7.866592 4.221098 12.151646 5.436262v87.939542l0.127912 1.982637c-53.850977-4.221098-104.056461-30.059334-133.540191-69.712073a11.959778 11.959778 0 0 0-16.75648-2.366373 11.959778 11.959778 0 0 0-2.430329 16.820436c36.774717 49.246143 101.306352 79.945038 168.332271 79.945038 29.80351 0 59.031416-6.395603 85.509213-18.163513l57.176691 36.007245a12.791206 12.791206 0 0 0 6.779339 2.814065l1.470989 0.127912a13.68659 13.68659 0 0 0 8.37824-2.941977 12.983074 12.983074 0 0 0 4.540878-6.907251l0.511648-2.046593-6.523515-80.328774c1.087253-1.215165 2.046593-2.366373 2.941977-3.581538z m-50.525263 44.257573c8.953844-5.500219 17.39604-11.639998 25.390544-18.419337l2.878021 36.135157-28.204609-17.71582z" fill="#525252" p-id="2244"></path></svg>